<svg xmlns="http://www.w3.org/2000/svg" viewBox="0 0 800 500" width="800" height="500">
  <rect x="0"   y="0"   width="400" height="400" fill="#f4f1ea"/>
  <rect x="400" y="0"   width="400" height="400" fill="#141414"/>
  <rect x="0"   y="400" width="400" height="100" fill="#141414"/>
  <rect x="400" y="400" width="400" height="100" fill="#f4f1ea"/>

  <!-- ============ CAT ============ -->
  <g transform="translate(200, 220)">
    <path d="M 95 85 C 142 78, 168 110, 156 144 C 144 174, 102 178, 88 148 C 96 150, 116 156, 130 142 C 144 126, 132 102, 98 108 Z" fill="#141414"/>
    <path d="M -105 130 C -118 90, -125 40, -115 -10 C -110 -40, -100 -65, -85 -85 L -52 -138 L -28 -78 C -10 -85, 10 -85, 28 -78 L 52 -138 L 85 -85 C 100 -65, 110 -40, 115 -10 C 125 40, 118 90, 105 130 C 90 144, 60 150, 0 150 C -60 150, -90 144, -105 130 Z" fill="#141414"/>
    <ellipse cx="-34" cy="-22" rx="22" ry="27" fill="#FFCC2A"/>
    <ellipse cx="34"  cy="-22" rx="22" ry="27" fill="#FFCC2A"/>
    <ellipse cx="-34" cy="-22" rx="4" ry="20" fill="#0a0a0a"/>
    <ellipse cx="34"  cy="-22" rx="4" ry="20" fill="#0a0a0a"/>
    <circle cx="-28" cy="-33" r="3.5" fill="#ffffff" opacity="0.9"/>
    <circle cx="40"  cy="-33" r="3.5" fill="#ffffff" opacity="0.9"/>
    <g stroke="#3a3a3a" stroke-width="1.5" stroke-linecap="round" opacity="0.55">
      <line x1="-22" y1="22" x2="-94" y2="14"/>
      <line x1="-22" y1="32" x2="-94" y2="40"/>
      <line x1="22"  y1="22" x2="94"  y2="14"/>
      <line x1="22"  y1="32" x2="94"  y2="40"/>
    </g>
    <path d="M -5 7 Q 0 14 5 7 Z" fill="#FFCC2A" opacity="0.65"/>
  </g>

  <!-- ============ BRAIN ============ -->
<g transform="translate(420.000000,390.000000) scale(0.100000,-0.100000)"
fill="#f4f1ea" stroke="none">
<path d="M1320 3416 c-142 -41 -250 -144 -294 -281 l-17 -50 -82 -1 c-154 -2
-274 -77 -339 -212 -29 -61 -33 -78 -36 -179 l-4 -113 -52 -23 c-101 -47 -190
-167 -217 -295 -27 -134 11 -289 94 -373 l36 -37 -30 -28 c-51 -48 -99 -159
-106 -241 -15 -184 81 -373 221 -434 l54 -24 4 -110 c3 -98 7 -117 35 -176 41
-89 92 -142 171 -181 56 -28 78 -33 158 -36 l92 -4 21 -57 c42 -116 115 -196
223 -246 166 -76 338 -49 448 72 57 62 86 133 101 242 6 48 9 512 7 1281 l-3
1205 -23 66 c-35 98 -96 170 -178 210 -57 28 -79 33 -153 36 -50 1 -105 -3
-131 -11z m238 -99 c53 -24 115 -94 139 -155 16 -43 18 -98 21 -649 2 -420 0
-603 -8 -603 -22 0 -84 69 -99 111 -12 32 -23 45 -39 47 -29 4 -52 -14 -52
-42 0 -34 49 -125 81 -148 l28 -21 -43 -48 c-66 -73 -83 -159 -35 -174 27 -9
55 17 63 57 6 33 68 98 92 98 13 0 14 -77 12 -603 l-3 -603 -35 -69 c-58 -116
-140 -162 -272 -152 -197 13 -361 214 -290 354 36 69 111 122 195 138 32 6 33
5 45 -42 20 -74 49 -115 80 -111 42 5 50 31 24 83 -31 64 -30 140 3 205 14 27
25 58 25 69 0 27 -34 45 -59 32 -19 -10 -71 -104 -71 -127 0 -6 -26 -17 -57
-23 -118 -23 -193 -74 -258 -175 -38 -60 -47 -64 -145 -57 -94 6 -187 66 -229
149 -27 53 -45 153 -37 207 l7 45 65 0 c36 0 74 5 85 10 21 12 26 54 7 67 -7
4 -62 11 -123 14 -123 6 -153 17 -214 78 -63 63 -94 140 -99 240 -5 110 19
180 84 246 l46 45 328 0 c285 0 331 2 344 16 21 20 20 30 -4 54 -19 19 -33 20
-349 20 l-329 0 -44 49 c-111 123 -103 337 16 469 56 62 111 84 219 89 126 6
137 9 137 37 0 35 -19 45 -98 52 l-71 7 -6 39 c-22 126 61 288 169 333 45 19
120 28 169 21 38 -6 45 -12 69 -55 56 -99 145 -156 288 -185 19 -4 29 -16 39
-43 7 -21 22 -53 33 -71 17 -28 25 -33 52 -30 42 4 45 33 12 100 -33 65 -35
141 -6 198 25 50 25 65 -2 84 -38 27 -77 -14 -102 -110 l-11 -41 -55 14 c-73
18 -125 54 -161 110 -35 56 -38 108 -8 172 76 168 280 251 437 178z"/>
<path d="M999 2633 c-19 -22 -16 -146 5 -203 9 -25 18 -49 19 -55 5 -23 -78
-49 -168 -53 -49 -2 -96 -9 -102 -14 -20 -16 -15 -56 6 -68 47 -25 198 -6 282
35 l36 17 52 -35 c69 -48 156 -80 180 -67 51 27 29 65 -54 95 -31 12 -69 37
-102 70 -59 59 -83 122 -83 215 0 31 -5 61 -12 68 -17 17 -43 15 -59 -5z"/>
<path d="M1250 1511 c-39 -12 -91 -41 -131 -72 l-37 -29 -53 25 c-92 41 -237
53 -276 22 -19 -14 -16 -55 5 -66 10 -5 36 -7 59 -4 43 6 122 -8 177 -31 l35
-14 -21 -54 c-28 -73 -31 -204 -5 -223 12 -9 27 -11 40 -6 19 7 23 18 28 92
10 144 68 223 202 274 41 15 67 38 67 59 0 2 -7 12 -16 20 -17 17 -34 19 -74
7z"/>
<path d="M2190 3409 c-61 -24 -84 -82 -56 -137 20 -38 44 -52 88 -52 27 0 43
-10 81 -48 46 -47 47 -49 47 -112 0 -55 -4 -68 -26 -91 -51 -53 -26 -143 45
-163 91 -26 162 93 96 160 -23 23 -25 33 -25 107 l0 83 -60 59 c-51 50 -60 65
-60 95 0 45 -23 78 -66 96 -18 8 -35 14 -36 13 -2 0 -14 -5 -28 -10z"/>
<path d="M2030 3133 c-74 -29 -89 -118 -29 -176 18 -17 19 -39 19 -361 0 -291
-2 -345 -14 -349 -8 -3 -22 -20 -31 -38 -53 -101 76 -190 157 -109 27 28 30
36 25 73 -4 28 -14 49 -31 64 l-26 22 0 340 c0 319 1 341 19 358 48 47 53 99
14 143 -28 30 -74 45 -103 33z"/>
<path d="M2645 3101 c-63 -26 -80 -109 -32 -159 25 -26 27 -34 27 -113 l0 -85
60 -59 c51 -50 60 -65 60 -95 0 -46 21 -76 64 -90 98 -32 170 87 97 161 -22
22 -39 29 -68 29 -33 0 -46 7 -82 44 -42 42 -43 46 -43 109 0 57 3 70 26 97
68 81 -13 200 -109 161z"/>
<path d="M2258 2543 c-48 -30 -60 -84 -31 -134 33 -55 113 -62 156 -13 19 22
28 24 112 24 l90 0 77 -77 c66 -69 76 -83 81 -123 7 -57 42 -90 96 -90 67 0
114 65 94 127 -13 38 -70 76 -104 69 -22 -4 -39 8 -115 85 l-89 89 -112 0
c-97 0 -114 2 -125 18 -30 43 -84 53 -130 25z"/>
<path d="M3098 2343 c-55 -34 -61 -114 -12 -156 21 -18 24 -29 24 -97 l0 -76
-58 -57 -58 -57 -78 0 c-69 0 -82 3 -108 25 -41 34 -70 40 -111 20 -89 -42
-62 -185 35 -185 33 0 88 25 88 40 0 6 37 10 87 10 l87 0 58 -57 58 -57 0 -72
c0 -53 -4 -75 -16 -85 -29 -24 -46 -70 -40 -105 14 -70 106 -99 163 -50 40 34
40 102 1 143 -26 27 -28 34 -28 120 l0 92 -55 56 c-30 30 -55 59 -55 63 0 4
25 32 55 62 l55 54 0 98 c0 80 3 100 15 105 19 7 45 55 45 82 0 33 -20 67 -50
84 -35 21 -67 21 -102 0z"/>
<path d="M2491 2146 c-30 -17 -50 -53 -51 -91 0 -24 -14 -44 -63 -93 l-63 -62
-79 0 c-72 0 -81 2 -107 27 -74 71 -197 -12 -158 -107 25 -60 111 -80 156 -35
23 23 32 25 112 25 l88 0 56 -57 c46 -48 57 -66 61 -102 10 -83 90 -122 154
-75 75 56 38 174 -54 174 -33 0 -46 7 -92 54 l-54 54 55 52 c44 43 62 53 93
55 45 3 95 50 95 90 0 79 -81 129 -149 91z"/>
<path d="M2008 1633 c-55 -34 -61 -108 -12 -153 l24 -23 0 -342 0 -342 -25
-23 c-33 -31 -41 -79 -21 -118 19 -37 44 -52 86 -52 42 0 67 15 85 50 23 44
18 76 -15 113 l-30 35 0 337 0 337 30 35 c45 51 37 113 -20 146 -35 21 -67 21
-102 0z"/>
<path d="M2804 1580 c-33 -13 -64 -59 -64 -94 0 -25 -14 -45 -77 -109 l-76
-77 -93 0 c-86 0 -95 2 -118 25 -34 34 -94 34 -133 1 -23 -20 -28 -32 -28 -71
0 -39 5 -51 28 -71 38 -33 95 -33 135 1 28 23 37 25 139 25 l108 0 90 90 c71
71 96 90 118 90 69 0 119 60 101 122 -15 52 -83 88 -130 68z"/>
<path d="M2791 1194 c-25 -21 -31 -33 -31 -65 0 -34 -8 -47 -60 -101 l-60 -63
0 -86 c0 -67 -3 -88 -14 -92 -8 -3 -22 -20 -32 -38 -13 -27 -14 -39 -5 -70 14
-47 44 -69 94 -69 84 0 126 94 72 158 -21 26 -25 40 -25 99 l0 69 49 48 c28
27 54 45 60 41 17 -10 79 14 96 38 26 37 19 94 -14 128 -39 38 -87 39 -130 3z"/>
<path d="M2333 892 c-34 -25 -46 -77 -28 -118 8 -19 21 -37 30 -40 11 -5 15
-22 15 -78 0 -72 0 -72 -44 -115 -35 -34 -51 -43 -85 -45 -101 -7 -137 -137
-50 -181 72 -38 149 10 149 92 0 22 15 43 60 88 l60 59 0 84 c0 75 3 87 25
114 35 42 34 91 -4 129 -35 34 -92 39 -128 11z"/>
  </g>

  <text x="200" y="468" font-family="'Helvetica Neue','Inter','Arial',sans-serif" font-size="60" font-weight="800" fill="#f4f1ea" text-anchor="middle" letter-spacing="-1.5">PyCat</text>
  <text x="600" y="468" font-family="'Helvetica Neue','Inter','Arial',sans-serif" font-size="60" font-weight="800" fill="#141414" text-anchor="middle" letter-spacing="-1.5">T1Prep</text>
</svg>
