<svg xmlns="http://www.w3.org/2000/svg" viewBox="0 0 800 500" width="800" height="500">
  <rect x="0"   y="0"   width="400" height="400" fill="#f4f1ea"/>
  <rect x="400" y="0"   width="400" height="400" fill="#141414"/>
  <rect x="0"   y="400" width="400" height="100" fill="#141414"/>
  <rect x="400" y="400" width="400" height="100" fill="#f4f1ea"/>

  <!-- ============ CAT ============ -->
  <g transform="translate(200, 220)">
    <path d="M 95 85 C 142 78, 168 110, 156 144 C 144 174, 102 178, 88 148 C 96 150, 116 156, 130 142 C 144 126, 132 102, 98 108 Z" fill="#141414"/>
    <path d="M -105 130 C -118 90, -125 40, -115 -10 C -110 -40, -100 -65, -85 -85 L -52 -138 L -28 -78 C -10 -85, 10 -85, 28 -78 L 52 -138 L 85 -85 C 100 -65, 110 -40, 115 -10 C 125 40, 118 90, 105 130 C 90 144, 60 150, 0 150 C -60 150, -90 144, -105 130 Z" fill="#141414"/>
    <ellipse cx="-34" cy="-22" rx="22" ry="27" fill="#FFCC2A"/>
    <ellipse cx="34"  cy="-22" rx="22" ry="27" fill="#FFCC2A"/>
    <ellipse cx="-34" cy="-22" rx="4" ry="20" fill="#0a0a0a"/>
    <ellipse cx="34"  cy="-22" rx="4" ry="20" fill="#0a0a0a"/>
    <circle cx="-28" cy="-33" r="3.5" fill="#ffffff" opacity="0.9"/>
    <circle cx="40"  cy="-33" r="3.5" fill="#ffffff" opacity="0.9"/>
    <g stroke="#3a3a3a" stroke-width="1.5" stroke-linecap="round" opacity="0.55">
      <line x1="-22" y1="22" x2="-94" y2="14"/>
      <line x1="-22" y1="32" x2="-94" y2="40"/>
      <line x1="22"  y1="22" x2="94"  y2="14"/>
      <line x1="22"  y1="32" x2="94"  y2="40"/>
    </g>
    <path d="M -5 7 Q 0 14 5 7 Z" fill="#FFCC2A" opacity="0.65"/>
  </g>

  <!-- ============ BRAIN ============ -->
<g transform="translate(400.000000,400.000000) scale(0.100000,-0.100000)"
fill="#f4f1ea" stroke="none">

<path d="M1669 3647 c-51 -15 -121 -53 -170 -94 -32 -27 -37 -28 -143 -28 -95
0 -118 -3 -163 -24 -66 -29 -132 -100 -162 -172 -20 -47 -30 -60 -67 -78 -70
-34 -131 -96 -154 -157 -29 -79 -26 -147 14 -270 6 -19 -1 -26 -56 -51 -119
-56 -211 -165 -243 -288 -17 -69 -20 -221 -4 -295 11 -50 11 -51 -26 -91 -94
-105 -86 -215 24 -332 l50 -52 -16 -100 c-27 -178 -8 -353 54 -483 36 -77 140
-179 220 -217 54 -25 62 -33 68 -63 20 -108 94 -223 179 -279 25 -17 63 -56
83 -86 85 -126 236 -197 415 -197 187 0 342 88 429 245 l39 70 0 1431 0 1431
-32 39 c-106 127 -220 174 -339 141z m148 -72 c52 -22 99 -60 134 -108 28 -39
29 -44 29 -154 0 -62 -3 -113 -7 -113 -5 0 -42 13 -83 30 -41 16 -90 29 -108
30 -31 0 -33 -2 -30 -27 3 -24 11 -31 68 -51 36 -12 86 -32 113 -44 l47 -21 0
-514 c0 -282 -3 -513 -7 -513 -5 0 -23 20 -41 45 -85 112 -281 210 -322 160
-21 -26 -2 -46 60 -62 111 -28 217 -123 275 -245 l35 -72 0 -388 c0 -213 -3
-388 -6 -388 -4 0 -26 17 -49 39 -42 39 -136 81 -179 81 -13 0 -29 -7 -36 -15
-18 -21 2 -42 54 -56 96 -26 198 -119 212 -195 12 -66 -2 -335 -21 -390 -37
-109 -131 -194 -254 -230 -79 -23 -235 -15 -314 15 -57 23 -157 93 -157 111 0
6 17 10 38 10 53 1 158 40 251 94 89 52 104 67 99 93 -6 32 -35 25 -122 -27
-104 -62 -179 -90 -246 -90 -129 0 -263 137 -289 296 -5 33 -17 102 -26 154
-31 172 -4 278 94 379 55 57 65 93 25 99 -29 4 -128 -103 -160 -172 -36 -79
-49 -172 -35 -263 16 -110 18 -107 -30 -83 -95 49 -177 169 -205 299 -23 112
-13 356 18 414 13 26 134 101 193 122 28 9 84 19 125 21 115 8 122 10 118 42
l-3 27 -90 0 c-113 -1 -212 -31 -305 -93 -60 -41 -67 -43 -90 -30 -14 7 -40
35 -58 62 -25 38 -32 59 -32 97 0 44 5 55 40 93 67 73 217 101 304 57 41 -21
61 -19 71 7 9 23 -34 58 -88 73 -40 11 -150 7 -208 -7 -26 -6 -27 -5 -38 76
-32 213 44 375 216 461 50 25 82 33 173 42 179 18 282 -8 376 -95 46 -43 77
-47 82 -11 5 31 -67 99 -141 134 -74 34 -182 51 -303 47 l-87 -3 -19 55 c-14
39 -18 74 -16 122 5 94 38 141 135 188 67 32 73 38 82 76 30 117 129 194 250
194 36 0 83 -4 104 -9 36 -9 42 -7 75 23 117 103 222 137 309 101z"/>
<path d="M1324 3156 c-82 -19 -124 -41 -124 -67 0 -31 25 -33 107 -9 176 52
316 -5 385 -157 28 -63 33 -68 62 -57 24 9 19 44 -14 112 -74 147 -239 218
-416 178z"/>
<path d="M1109 2503 c-18 -45 -14 -228 6 -308 47 -188 159 -315 315 -359 57
-16 64 -16 79 -2 23 24 4 48 -56 66 -69 21 -135 63 -177 112 -20 23 -36 44
-36 48 0 3 28 11 63 17 70 12 153 47 161 69 8 22 -4 44 -25 44 -11 0 -38 -9
-60 -21 -23 -11 -70 -23 -109 -26 l-68 -6 -10 34 c-22 69 -33 164 -30 258 3
93 2 96 -19 99 -17 3 -26 -4 -34 -25z"/>
<path d="M1459 1579 c-29 -29 -85 -151 -105 -228 -10 -39 -15 -89 -12 -128 l4
-62 -26 6 c-45 11 -78 32 -106 68 -29 39 -59 45 -69 15 -16 -50 74 -129 171
-151 48 -11 59 -18 90 -60 60 -82 207 -175 242 -153 34 22 25 41 -38 75 -216
115 -258 287 -129 527 21 41 39 78 39 82 0 5 -9 14 -20 20 -16 8 -24 6 -41
-11z"/>
  </g>

<g transform="translate(430.000000,390.000000) scale(0.100000,-0.100000)"
fill="#f4f1ea" stroke="none">

<path d="M2190 3409 c-61 -24 -84 -82 -56 -137 20 -38 44 -52 88 -52 27 0 43
-10 81 -48 46 -47 47 -49 47 -112 0 -55 -4 -68 -26 -91 -51 -53 -26 -143 45
-163 91 -26 162 93 96 160 -23 23 -25 33 -25 107 l0 83 -60 59 c-51 50 -60 65
-60 95 0 45 -23 78 -66 96 -18 8 -35 14 -36 13 -2 0 -14 -5 -28 -10z"/>
<path d="M2030 3133 c-74 -29 -89 -118 -29 -176 18 -17 19 -39 19 -361 0 -291
-2 -345 -14 -349 -8 -3 -22 -20 -31 -38 -53 -101 76 -190 157 -109 27 28 30
36 25 73 -4 28 -14 49 -31 64 l-26 22 0 340 c0 319 1 341 19 358 48 47 53 99
14 143 -28 30 -74 45 -103 33z"/>
<path d="M2645 3101 c-63 -26 -80 -109 -32 -159 25 -26 27 -34 27 -113 l0 -85
60 -59 c51 -50 60 -65 60 -95 0 -46 21 -76 64 -90 98 -32 170 87 97 161 -22
22 -39 29 -68 29 -33 0 -46 7 -82 44 -42 42 -43 46 -43 109 0 57 3 70 26 97
68 81 -13 200 -109 161z"/>
<path d="M2258 2543 c-48 -30 -60 -84 -31 -134 33 -55 113 -62 156 -13 19 22
28 24 112 24 l90 0 77 -77 c66 -69 76 -83 81 -123 7 -57 42 -90 96 -90 67 0
114 65 94 127 -13 38 -70 76 -104 69 -22 -4 -39 8 -115 85 l-89 89 -112 0
c-97 0 -114 2 -125 18 -30 43 -84 53 -130 25z"/>
<path d="M3098 2343 c-55 -34 -61 -114 -12 -156 21 -18 24 -29 24 -97 l0 -76
-58 -57 -58 -57 -78 0 c-69 0 -82 3 -108 25 -41 34 -70 40 -111 20 -89 -42
-62 -185 35 -185 33 0 88 25 88 40 0 6 37 10 87 10 l87 0 58 -57 58 -57 0 -72
c0 -53 -4 -75 -16 -85 -29 -24 -46 -70 -40 -105 14 -70 106 -99 163 -50 40 34
40 102 1 143 -26 27 -28 34 -28 120 l0 92 -55 56 c-30 30 -55 59 -55 63 0 4
25 32 55 62 l55 54 0 98 c0 80 3 100 15 105 19 7 45 55 45 82 0 33 -20 67 -50
84 -35 21 -67 21 -102 0z"/>
<path d="M2491 2146 c-30 -17 -50 -53 -51 -91 0 -24 -14 -44 -63 -93 l-63 -62
-79 0 c-72 0 -81 2 -107 27 -74 71 -197 -12 -158 -107 25 -60 111 -80 156 -35
23 23 32 25 112 25 l88 0 56 -57 c46 -48 57 -66 61 -102 10 -83 90 -122 154
-75 75 56 38 174 -54 174 -33 0 -46 7 -92 54 l-54 54 55 52 c44 43 62 53 93
55 45 3 95 50 95 90 0 79 -81 129 -149 91z"/>
<path d="M2008 1633 c-55 -34 -61 -108 -12 -153 l24 -23 0 -342 0 -342 -25
-23 c-33 -31 -41 -79 -21 -118 19 -37 44 -52 86 -52 42 0 67 15 85 50 23 44
18 76 -15 113 l-30 35 0 337 0 337 30 35 c45 51 37 113 -20 146 -35 21 -67 21
-102 0z"/>
<path d="M2804 1580 c-33 -13 -64 -59 -64 -94 0 -25 -14 -45 -77 -109 l-76
-77 -93 0 c-86 0 -95 2 -118 25 -34 34 -94 34 -133 1 -23 -20 -28 -32 -28 -71
0 -39 5 -51 28 -71 38 -33 95 -33 135 1 28 23 37 25 139 25 l108 0 90 90 c71
71 96 90 118 90 69 0 119 60 101 122 -15 52 -83 88 -130 68z"/>
<path d="M2791 1194 c-25 -21 -31 -33 -31 -65 0 -34 -8 -47 -60 -101 l-60 -63
0 -86 c0 -67 -3 -88 -14 -92 -8 -3 -22 -20 -32 -38 -13 -27 -14 -39 -5 -70 14
-47 44 -69 94 -69 84 0 126 94 72 158 -21 26 -25 40 -25 99 l0 69 49 48 c28
27 54 45 60 41 17 -10 79 14 96 38 26 37 19 94 -14 128 -39 38 -87 39 -130 3z"/>
<path d="M2333 892 c-34 -25 -46 -77 -28 -118 8 -19 21 -37 30 -40 11 -5 15
-22 15 -78 0 -72 0 -72 -44 -115 -35 -34 -51 -43 -85 -45 -101 -7 -137 -137
-50 -181 72 -38 149 10 149 92 0 22 15 43 60 88 l60 59 0 84 c0 75 3 87 25
114 35 42 34 91 -4 129 -35 34 -92 39 -128 11z"/>
  </g>

  <text x="200" y="468" font-family="'Helvetica Neue','Inter','Arial',sans-serif" font-size="60" font-weight="500" fill="#f4f1ea" text-anchor="middle" letter-spacing="-1.0">PyCat</text>
  <text x="600" y="468" font-family="'Helvetica Neue','Inter','Arial',sans-serif" font-size="60" font-weight="800" fill="#141414" text-anchor="middle" letter-spacing="-1.5">T1Prep</text>
</svg>
